<svg width="1489" height="1290" xmlns="http://www.w3.org/2000/svg" xmlns:xlink="http://www.w3.org/1999/xlink" overflow="hidden"><defs><clipPath id="clip0"><rect x="2595" y="344" width="1489" height="1290"/></clipPath><clipPath id="clip1"><rect x="2659" y="392" width="118" height="119"/></clipPath><clipPath id="clip2"><rect x="2659" y="392" width="118" height="119"/></clipPath><clipPath id="clip3"><rect x="2659" y="392" width="118" height="119"/></clipPath><clipPath id="clip4"><rect x="2659" y="658" width="118" height="118"/></clipPath><clipPath id="clip5"><rect x="2659" y="658" width="118" height="118"/></clipPath><clipPath id="clip6"><rect x="2659" y="658" width="118" height="118"/></clipPath><clipPath id="clip7"><rect x="2659" y="924" width="118" height="117"/></clipPath><clipPath id="clip8"><rect x="2659" y="924" width="118" height="117"/></clipPath><clipPath id="clip9"><rect x="2659" y="924" width="118" height="117"/></clipPath><clipPath id="clip10"><rect x="2659" y="1190" width="118" height="116"/></clipPath><clipPath id="clip11"><rect x="2659" y="1190" width="118" height="116"/></clipPath><clipPath id="clip12"><rect x="2659" y="1190" width="118" height="116"/></clipPath><clipPath id="clip13"><rect x="2659" y="1455" width="118" height="117"/></clipPath><clipPath id="clip14"><rect x="2659" y="1455" width="118" height="117"/></clipPath><clipPath id="clip15"><rect x="2659" y="1455" width="118" height="117"/></clipPath></defs><g clip-path="url(#clip0)" transform="translate(-2595 -344)"><path d="M2595 366.301C2595 354.537 2604.54 345 2616.3 345L4037.7 345C4049.46 345 4059 354.537 4059 366.301L4059 536.699C4059 548.463 4049.46 558 4037.7 558L2616.3 558C2604.54 558 2595 548.463 2595 536.699Z" fill="#F2F2F2" fill-rule="evenodd"/><g clip-path="url(#clip1)"><g clip-path="url(#clip2)"><g clip-path="url(#clip3)"><path d="M104.038 19.0917 42.1709 77.5751 12.4459 47.1251 2.175 56.9126 41.6876 97.5127 52.0793 87.846 113.825 29.2417Z" fill="#42BA97" transform="matrix(1 0 0 1.00862 2660 393)"/></g></g></g><text font-family="Tw Cen MT,Tw Cen MT_MSFontService,sans-serif" font-weight="400" font-size="68" transform="matrix(1 0 0 1 2863.1 475)">Flexible demos and prototypes</text><path d="M2595 632.199C2595 620.491 2604.49 611 2616.2 611L4037.8 611C4049.51 611 4059 620.491 4059 632.199L4059 801.8C4059 813.509 4049.51 823 4037.8 823L2616.2 823C2604.49 823 2595 813.509 2595 801.8Z" fill="#F2F2F2" fill-rule="evenodd"/><g clip-path="url(#clip4)"><g clip-path="url(#clip5)"><g clip-path="url(#clip6)"><path d="M2720.42 698.875C2720.42 700.21 2719.33 701.292 2718 701.292 2716.67 701.292 2715.58 700.21 2715.58 698.875 2715.58 697.54 2716.67 696.458 2718 696.458 2719.33 696.458 2720.42 697.54 2720.42 698.875Z" fill="#62A39F"/><path d="M2720.42 747.208C2720.42 748.543 2719.33 749.625 2718 749.625 2716.67 749.625 2715.58 748.543 2715.58 747.208 2715.58 745.874 2716.67 744.792 2718 744.792 2719.33 744.792 2720.42 745.874 2720.42 747.208Z" fill="#62A39F"/><path d="M2744.58 721.833C2744.58 723.168 2743.5 724.25 2742.17 724.25 2740.83 724.25 2739.75 723.168 2739.75 721.833 2739.75 720.499 2740.83 719.417 2742.17 719.417 2743.5 719.417 2744.58 720.499 2744.58 721.833Z" fill="#62A39F"/><path d="M2696.25 721.833C2696.25 723.168 2695.17 724.25 2693.83 724.25 2692.5 724.25 2691.42 723.168 2691.42 721.833 2691.42 720.499 2692.5 719.417 2693.83 719.417 2695.17 719.417 2696.25 720.499 2696.25 721.833Z" fill="#62A39F"/><path d="M2720.42 704.917 2715.58 704.917 2715.58 721.833C2715.58 722.438 2715.83 723.042 2716.31 723.525L2728.27 735.488 2731.65 732.104 2720.42 720.867 2720.42 704.917Z" fill="#62A39F"/><path d="M2718 756.875C2699.27 756.875 2684.17 741.771 2684.17 723.042 2684.17 704.313 2699.27 689.208 2718 689.208 2736.73 689.208 2751.83 704.313 2751.83 723.042 2751.83 741.771 2736.73 756.875 2718 756.875L2718 756.875ZM2746.64 693.558 2750.26 689.933C2751.59 688.483 2751.59 686.308 2750.14 684.858 2748.81 683.529 2746.52 683.408 2745.07 684.737L2740.96 688.967C2735.16 685.1 2728.51 682.683 2721.63 682.2L2721.63 677.125 2732.5 677.125 2732.5 669.875 2703.5 669.875 2703.5 677.125 2714.38 677.125 2714.38 682.079C2695.16 683.771 2679.7 698.633 2677.28 717.846 2674.86 737.058 2686.1 755.304 2704.35 761.708 2722.59 768.113 2742.77 761.104 2753.04 744.671 2763.31 728.238 2760.41 706.971 2746.64 693.558L2746.64 693.558Z" fill="#62A39F"/></g></g></g><text font-family="Tw Cen MT,Tw Cen MT_MSFontService,sans-serif" font-weight="400" font-size="68" transform="matrix(1 0 0 1 2863.1 740)">Easy setup with no compile time</text><path d="M2595 897.3C2595 885.536 2604.54 876 2616.3 876L4037.7 876C4049.46 876 4059 885.536 4059 897.3L4059 1067.7C4059 1079.46 4049.46 1089 4037.7 1089L2616.3 1089C2604.54 1089 2595 1079.46 2595 1067.7Z" fill="#F2F2F2" fill-rule="evenodd"/><g clip-path="url(#clip7)"><g clip-path="url(#clip8)"><g clip-path="url(#clip9)"><path d="M55.5834 26.5834C55.5834 30.5875 52.3375 33.8334 48.3334 33.8334 44.3293 33.8334 41.0834 30.5875 41.0834 26.5834 41.0834 22.5793 44.3293 19.3334 48.3334 19.3334 52.3375 19.3334 55.5834 22.5793 55.5834 26.5834Z" fill="#2683C6" transform="matrix(1 0 0 1.00862 2660 924)"/><path d="M48.3334 8.45835C48.3334 10.4604 46.7104 12.0834 44.7084 12.0834 42.7064 12.0834 41.0834 10.4604 41.0834 8.45835 41.0834 6.45631 42.7064 4.83334 44.7084 4.83334 46.7104 4.83334 48.3334 6.45631 48.3334 8.45835Z" fill="#2683C6" transform="matrix(1 0 0 1.00862 2660 924)"/><path d="M68.8751 30.2084C68.8751 32.2104 67.2521 33.8334 65.2501 33.8334 63.2481 33.8334 61.6251 32.2104 61.6251 30.2084 61.6251 28.2063 63.2481 26.5834 65.2501 26.5834 67.2521 26.5834 68.8751 28.2063 68.8751 30.2084Z" fill="#2683C6" transform="matrix(1 0 0 1.00862 2660 924)"/><path d="M72.5001 14.5C72.5001 17.1694 70.3362 19.3334 67.6668 19.3334 64.9974 19.3334 62.8334 17.1694 62.8334 14.5 62.8334 11.8306 64.9974 9.66668 67.6668 9.66668 70.3362 9.66668 72.5001 11.8306 72.5001 14.5Z" fill="#2683C6" transform="matrix(1 0 0 1.00862 2660 924)"/><path d="M91.7127 39.2709C91.471 38.1834 90.5043 37.4584 89.4168 37.4584L26.5834 37.4584C25.4959 37.4584 24.5292 38.1834 24.2875 39.2709 24.0459 40.3584 24.5292 41.4459 25.4959 41.9292 25.4959 41.9292 29.1209 43.9834 29.1209 48.3334L29.1209 103.917C29.1209 107.904 32.3834 111.167 36.3709 111.167L79.871 111.167C83.8585 111.167 87.121 107.904 87.121 103.917L87.121 48.3334C87.121 43.9834 90.5043 42.0501 90.6252 42.0501 91.471 41.4459 92.0752 40.3584 91.7127 39.2709ZM74.9168 101.5 60.4168 101.5 60.4168 96.6668 74.9168 96.6668 74.9168 101.5ZM74.9168 91.8335 60.4168 91.8335 60.4168 87.0002 74.9168 87.0002 74.9168 91.8335ZM74.9168 82.1668 60.4168 82.1668 60.4168 77.3335 74.9168 77.3335 74.9168 82.1668ZM74.9168 72.5001 60.4168 72.5001 60.4168 67.6668 74.9168 67.6668 74.9168 72.5001ZM74.9168 62.8334 60.4168 62.8334 60.4168 58.0001 74.9168 58.0001 74.9168 62.8334ZM82.1668 48.3334 82.1668 50.6293C78.421 49.1793 72.3793 47.1251 66.4585 47.1251 59.9334 47.1251 55.9459 48.2126 51.8376 49.3001 47.3667 50.5084 42.6542 51.7168 33.8334 51.9584L33.8334 48.3334C33.8334 45.9167 33.1084 43.8626 32.2626 42.2917L83.7376 42.2917C82.8918 43.8626 82.1668 45.9167 82.1668 48.3334Z" fill="#2683C6" transform="matrix(1 0 0 1.00862 2660 924)"/></g></g></g><text font-family="Tw Cen MT,Tw Cen MT_MSFontService,sans-serif" font-weight="400" font-size="68" transform="matrix(1 0 0 1 2863.1 1006)">Practice one command at a time</text><path d="M2595 1163.2C2595 1151.49 2604.49 1142 2616.2 1142L4037.8 1142C4049.51 1142 4059 1151.49 4059 1163.2L4059 1332.8C4059 1344.51 4049.51 1354 4037.8 1354L2616.2 1354C2604.49 1354 2595 1344.51 2595 1332.8Z" fill="#F2F2F2" fill-rule="evenodd"/><g clip-path="url(#clip10)"><g clip-path="url(#clip11)"><g clip-path="url(#clip12)"><path d="M109.414 96.6665 62.1928 14.5C60.865 12.1843 57.9113 11.3835 55.5957 12.7113 54.8512 13.1382 54.2339 13.7555 53.807 14.5L6.58541 96.6665C5.25072 98.9783 6.04278 101.934 8.35453 103.269 9.08783 103.692 9.91948 103.916 10.7662 103.917L105.234 103.917C107.903 103.914 110.065 101.748 110.062 99.0782 110.061 98.2314 109.838 97.3999 109.414 96.6665ZM75.0857 80.8374 69.9624 85.9607 57.9999 73.9982 46.0374 85.9607 40.9141 80.8374 52.8766 68.8749 40.9141 56.9124 46.0374 51.7891 57.9999 63.7516 69.9624 51.7891 75.0857 56.9124 63.1232 68.8749Z" fill="#27CED7" transform="matrix(1 0 0 1 2660 1190)"/></g></g></g><text font-family="Tw Cen MT,Tw Cen MT_MSFontService,sans-serif" font-weight="400" font-size="68" transform="matrix(1 0 0 1 2863.1 1231)">When a command fails pivot easily and <tspan font-size="68" x="0" y="80">continue uninterrupted</tspan></text><path d="M2595 1428.3C2595 1416.54 2604.54 1407 2616.3 1407L4037.7 1407C4049.46 1407 4059 1416.54 4059 1428.3L4059 1598.7C4059 1610.46 4049.46 1620 4037.7 1620L2616.3 1620C2604.54 1620 2595 1610.46 2595 1598.7Z" fill="#F2F2F2" fill-rule="evenodd"/><g clip-path="url(#clip13)"><g clip-path="url(#clip14)"><g clip-path="url(#clip15)"><path d="M67.6668 70.0835 9.66668 70.0835 9.66668 31.4167 67.6668 31.4167 67.6668 70.0835ZM70.0835 24.1667 7.25001 24.1667C4.59167 24.1667 2.41667 26.3417 2.41667 29L2.41667 72.5001C2.41667 75.1585 4.59167 77.3335 7.25001 77.3335L31.4167 77.3335 31.4167 84.5835 20.5417 84.5835 20.5417 91.8335 56.7918 91.8335 56.7918 84.5835 45.9167 84.5835 45.9167 77.3335 70.0835 77.3335C72.7418 77.3335 74.9168 75.1585 74.9168 72.5001L74.9168 29C74.9168 26.3417 72.7418 24.1667 70.0835 24.1667Z" fill="#62A39F" transform="matrix(1 0 0 1.00862 2660 1455)"/><path d="M108.75 36.2501 84.5835 36.2501 84.5835 29 108.75 29 108.75 36.2501ZM108.75 48.3334 84.5835 48.3334 84.5835 41.0834 108.75 41.0834 108.75 48.3334ZM96.6668 84.5835C94.6127 84.5835 93.0418 83.0126 93.0418 80.9585 93.0418 78.9043 94.6127 77.3335 96.6668 77.3335 98.721 77.3335 100.292 78.9043 100.292 80.9585 100.292 83.0126 98.721 84.5835 96.6668 84.5835ZM108.75 24.1667 84.5835 24.1667C81.9251 24.1667 79.7501 26.3417 79.7501 29L79.7501 87.0002C79.7501 89.6585 81.9251 91.8335 84.5835 91.8335L108.75 91.8335C111.409 91.8335 113.584 89.6585 113.584 87.0002L113.584 29C113.584 26.3417 111.409 24.1667 108.75 24.1667Z" fill="#62A39F" transform="matrix(1 0 0 1.00862 2660 1455)"/></g></g></g><rect x="2660" y="1455" width="116" height="117" stroke="#FFFFFF" stroke-width="5.72917" stroke-linejoin="round" stroke-miterlimit="10" stroke-opacity="0" fill="none"/><text font-family="Tw Cen MT,Tw Cen MT_MSFontService,sans-serif" font-weight="400" font-size="68" transform="matrix(1 0 0 1 2863.1 1497)">Reuse code in other Selenium projects <tspan font-size="68" x="0" y="80">(Java or JavaScript)</tspan></text></g></svg>
